HIERARCHY
ROOT Hips
{
  OFFSET 32.5108 99.5217 -10.2383
  CHANNELS 6 Xposition Yposition Zposition Zrotation Xrotation Yrotation
  JOINT spine
  {
    OFFSET 0 8.81704 0.507024
    CHANNELS 3 Zrotation Xrotation Yrotation
    JOINT spine1
    {
      OFFSET 0 10.7766 0
      CHANNELS 3 Zrotation Xrotation Yrotation
      JOINT spine2
      {
        OFFSET 0 10.3259 0
        CHANNELS 3 Zrotation Xrotation Yrotation
        JOINT Neck
        {
          OFFSET 0 26.511 1.26395
          CHANNELS 3 Zrotation Xrotation Yrotation
          JOINT Head
          {
            OFFSET 0 8.00966 0
            CHANNELS 3 Zrotation Xrotation Yrotation
            End Site
            {
              OFFSET 0 19.3879 -6.39386
            }
          }
        }
        JOINT RightShoulder
        {
          OFFSET -4.34795 11.1512 -0.605422
          CHANNELS 3 Zrotation Xrotation Yrotation
          JOINT RightArm
          {
            OFFSET 0 14.6258 0
            CHANNELS 3 Zrotation Xrotation Yrotation
            JOINT RightArmRoll
            {
              OFFSET 0 7.38339 0
              CHANNELS 3 Zrotation Xrotation Yrotation
              JOINT RightForeArm
              {
                OFFSET 0 21.5052 0
                CHANNELS 3 Zrotation Xrotation Yrotation
                JOINT RightForeArmRoll
                {
                  OFFSET 0 8.28532 0
                  CHANNELS 3 Zrotation Xrotation Yrotation
                  JOINT RightHand
                  {
                    OFFSET 0 16.6268 0
                    CHANNELS 3 Zrotation Xrotation Yrotation
                    End Site
                    {
                      OFFSET 0 0 0
                    }
                  }
                }
              }
            }
          }
        }
        JOINT LeftShoulder
        {
          OFFSET 4.34795 11.1512 -0.605422
          CHANNELS 3 Zrotation Xrotation Yrotation
          JOINT LeftArm
          {
            OFFSET 0 14.6258 0
            CHANNELS 3 Zrotation Xrotation Yrotation
            JOINT LeftArmRoll
            {
              OFFSET 0 7.3834 0
              CHANNELS 3 Zrotation Xrotation Yrotation
              JOINT LeftForeArm
              {
                OFFSET 0 21.5052 0
                CHANNELS 3 Zrotation Xrotation Yrotation
                JOINT LeftForeArmRoll
                {
                  OFFSET 0 8.28532 0
                  CHANNELS 3 Zrotation Xrotation Yrotation
                  JOINT LeftHand
                  {
                    OFFSET 0 16.6268 0
                    CHANNELS 3 Zrotation Xrotation Yrotation
                    End Site
                    {
                      OFFSET 0 0 0
                    }
                  }
                }
              }
            }
          }
        }
      }
    }
  }
  JOINT RightUpLeg
  {
    OFFSET -7.8151 -1.43309 -1.20217
    CHANNELS 3 Zrotation Xrotation Yrotation
    JOINT RightUpLegRoll
    {
      OFFSET 0 19.4959 0
      CHANNELS 3 Zrotation Xrotation Yrotation
      JOINT RightLeg
      {
        OFFSET 0 -24.1427 0
        CHANNELS 3 Zrotation Xrotation Yrotation
        JOINT RightLegRoll
        {
          OFFSET 0 24.2217 0
          CHANNELS 3 Zrotation Xrotation Yrotation
          JOINT RightFoot
          {
            OFFSET 0 20.1605 0
            CHANNELS 3 Zrotation Xrotation Yrotation
            JOINT RightToeBase
            {
              OFFSET 0 16.8532 0
              CHANNELS 3 Zrotation Xrotation Yrotation
              End Site
              {
                OFFSET 0.00714343 8.16186 -0.940781
              }
            }
          }
        }
      }
    }
  }
  JOINT LeftUpLeg
  {
    OFFSET 7.8151 -1.43309 -1.20217
    CHANNELS 3 Zrotation Xrotation Yrotation
    JOINT LeftUpLegRoll
    {
      OFFSET 0 19.496 0
      CHANNELS 3 Zrotation Xrotation Yrotation
      JOINT LeftLeg
      {
        OFFSET 0 24.1426 0
        CHANNELS 3 Zrotation Xrotation Yrotation
        JOINT LeftLegRoll
        {
          OFFSET 0 24.4456 0
          CHANNELS 3 Zrotation Xrotation Yrotation
          JOINT LeftFoot
          {
            OFFSET 0 19.9366 0
            CHANNELS 3 Zrotation Xrotation Yrotation
            JOINT LeftToeBase
            {
              OFFSET 0 16.8532 0
              CHANNELS 3 Zrotation Xrotation Yrotation
              End Site
              {
                OFFSET -0.0320138 8.16187 -0.94078
              }
            }
          }
        }
      }
    }
  }
}
MOTION
Frames: 13
Frame Time: 0.00208333
44.1127 104.639 5.71686 -0.859275 -2.61715 7.33176 -0.233507 -1.92402 0.136464 -0.463525 0.154145 0.295389 -0.467247 1.79919 0.303235 9.01423 7.82769 -3.20345 -4.23365 8.58196 -1.60253 57.9834 -13.8303 -8.66532 70.8987 10.3961 33.5732 -3.59775e-006 1.24735e-007 2.91653e-007 6.00315 5.56273 -0.849757 -3.99779e-006 3.89604e-007 -3.00634 8.02927 -4.95139 0.697678 -55.8292 -5.13389 3.00412 -82.832 10.7063 -19.0357 -5.77782e-006 6.14791e-007 -1.03527e-006 -8.8813 2.08214 0.755858 7.69901e-006 7.99628e-007 3 -8.02886 -4.95144 -0.697669 179.958 10.1443 2.13183 180 7.01504e-015 178.749 176.226 35.0298 179.787 -5.35018e-007 -4.00495e-006 0.464291 -17.9253 67.5191 19.1593 8.11337 24.8761 -3.37677 -177.78 11.593 0.466267 4.54188e-006 -4.6773e-006 -1.19265 -2.00015 -35.1032 0.50282 -1.6134e-006 -4.95199e-006 -0.483115 19.2024 68.9193 -20.3175 -8.12124 24.9991 3.40107 
44.0878 104.456 5.7032 -0.845159 -2.65816 7.33295 -0.232334 -1.90568 0.140775 -0.460897 0.190801 0.303951 -0.464725 1.83585 0.311758 8.91282 7.87352 -3.20487 -4.14708 8.45197 -1.62076 58.2606 -13.7776 -8.62119 71.3674 10.3056 33.4457 -3.59775e-006 1.24735e-007 2.91653e-007 6.02195 5.61789 -0.855227 -3.99779e-006 3.89604e-007 -3.00633 8.02927 -4.95139 0.697678 -56.1444 -5.06163 2.98224 -83.1366 10.619 -18.6413 -5.77782e-006 6.14791e-007 -1.03527e-006 -9.14403 2.02783 0.743771 7.69901e-006 7.99628e-007 3 -8.02886 -4.95144 -0.697669 -179.93 10.1996 2.08505 180 7.01504e-015 178.751 176.218 35.1697 179.79 -5.35018e-007 -4.00495e-006 0.466142 -17.9363 67.5332 19.1705 8.13649 25.2327 -3.48773 -177.936 11.6531 0.508915 4.54188e-006 -4.6773e-006 -1.19463 -2.03861 -35.3469 0.492472 -1.6134e-006 -4.95199e-006 -0.487217 19.219 68.9364 -20.3326 -8.13649 25.2327 3.48774 
44.0631 104.219 5.68818 -0.821105 -2.69388 7.33273 -0.229802 -1.89007 0.143738 -0.455653 0.222024 0.309677 -0.459553 1.86707 0.3174 8.72507 7.97128 -3.1931 -3.98884 8.27797 -1.63838 58.4927 -13.6992 -8.56225 71.8667 10.1916 33.3124 -3.59775e-006 1.24735e-007 2.91653e-007 6.0407 5.67722 -0.860934 -3.99779e-006 3.89604e-007 -3.00631 8.02927 -4.95139 0.697678 -56.5367 -4.9783 2.95963 -83.3731 10.5307 -18.3072 -5.77782e-006 6.14791e-007 -1.03527e-006 -9.37439 1.98554 0.733071 7.69901e-006 7.99628e-007 3 -8.02886 -4.95144 -0.697669 -179.838 10.2547 2.04136 180 7.01505e-015 178.753 176.216 35.2845 179.789 -5.35018e-007 -4.00494e-006 0.466372 -17.9249 67.5319 19.1677 8.16935 25.702 -3.64411 -178.103 11.708 0.559523 4.54188e-006 -4.6773e-006 -1.19601 -2.07902 -35.5611 0.481437 -1.6134e-006 -4.95199e-006 -0.489521 19.2114 68.9328 -20.3283 -8.15752 25.5359 3.60964 
44.0586 104.032 5.67919 -0.786204 -2.72554 7.33162 -0.22606 -1.87663 0.145535 -0.448057 0.248917 0.312947 -0.451996 1.89396 0.320546 8.45365 8.11653 -3.16942 -3.76158 8.06327 -1.65647 58.6825 -13.5957 -8.48888 72.3928 10.0542 33.1746 -3.59775e-006 1.24735e-007 2.91653e-007 6.05942 5.74046 -0.866858 -3.99779e-006 3.89604e-007 -3.0063 8.02927 -4.95139 0.697678 -57.0076 -4.88297 2.93597 -83.5413 10.44 -18.0073 -5.77782e-006 6.14791e-007 -1.03527e-006 -9.59524 1.9533 0.722814 7.69901e-006 7.99628e-007 3 -8.02886 -4.95144 -0.697669 -179.767 10.306 2.00098 180 7.01506e-015 178.756 176.222 35.3608 179.785 -5.35018e-007 -4.00494e-006 0.463954 -17.874 67.5027 19.1398 8.21471 26.2882 -3.85516 -178.281 11.7553 0.61776 4.54188e-006 -4.6773e-006 -1.19654 -2.12383 -35.7377 0.469348 -1.6134e-006 -4.95199e-006 -0.488993 19.1636 68.8957 -20.2922 -8.18551 25.9088 3.77372 
44.029 103.786 5.66108 -0.742011 -2.75351 7.32969 -0.221254 -1.86511 0.146305 -0.438392 0.271964 0.314056 -0.442343 1.91701 0.321495 8.10927 8.30352 -3.13524 -3.47435 7.8126 -1.67482 58.8347 -13.4703 -8.40304 72.9427 9.89653 33.033 -3.59775e-006 1.24735e-007 2.91653e-007 6.07796 5.80707 -0.872955 -3.99779e-006 3.89604e-007 -3.00628 8.02927 -4.95139 0.697678 -57.5459 -4.77742 2.91151 -83.6511 10.3478 -17.7406 -5.77782e-006 6.14791e-007 -1.03527e-006 -9.80467 1.93036 0.713087 7.69901e-006 7.99628e-007 3 -8.02886 -4.95144 -0.697669 -179.714 10.3546 1.96389 180 7.01507e-015 178.761 176.233 35.4066 179.777 -5.35018e-007 -4.00494e-006 0.45948 -17.793 67.452 19.0929 8.27441 26.9757 -4.114 -178.468 11.7963 0.682293 4.54188e-006 -4.6773e-006 -1.19642 -2.17216 -35.8832 0.456334 -1.6134e-006 -4.95198e-006 -0.486245 19.0851 68.8322 -20.2316 -8.22128 26.3425 3.97405 
44.0169 103.594 5.64131 -0.690081 -2.77817 7.32704 -0.21553 -1.85528 0.146189 -0.426941 0.291646 0.313296 -0.43088 1.93669 0.320545 7.7026 8.52652 -3.09196 -3.13618 7.53067 -1.69318 58.9538 -13.3262 -8.30669 73.5135 9.72197 32.8883 -3.59775e-006 1.24735e-007 2.91653e-007 6.09616 5.87655 -0.879186 -3.99779e-006 3.89604e-007 -3.00627 8.02927 -4.95139 0.697678 -58.1404 -4.66345 2.88647 -83.712 10.2551 -17.5058 -5.77782e-006 6.14791e-007 -1.03527e-006 -10.0008 1.91599 0.703978 7.69901e-006 7.99628e-007 3 -8.02886 -4.95144 -0.697669 -179.678 10.4014 1.93006 180 7.01508e-015 178.765 176.249 35.4296 179.767 -5.35018e-007 -4.00494e-006 0.45354 -17.6911 67.3865 19.0328 8.35024 27.7486 -4.4138 -178.662 11.8325 0.751788 4.54188e-006 -4.6773e-006 -1.19581 -2.2231 -36.0044 0.442522 -1.6134e-006 -4.95198e-006 -0.481891 18.985 68.7499 -20.1539 -8.26558 26.8285 4.20469 
43.988 103.394 5.62862 -0.63197 -2.79991 7.32373 -0.209035 -1.84689 0.145323 -0.413991 0.308446 0.31096 -0.417899 1.95349 0.317993 7.24434 8.77978 -3.04097 -2.75612 7.22221 -1.71132 59.0446 -13.1665 -8.20181 74.1023 9.53375 32.7413 -3.59775e-006 1.24735e-007 2.91653e-007 6.11384 5.94837 -0.885507 -3.99779e-006 3.89604e-007 -3.00626 8.02927 -4.95139 0.697678 -58.7797 -4.54287 2.86109 -83.734 10.163 -17.3015 -5.77782e-006 6.14791e-007 -1.03527e-006 -10.1817 1.90945 0.695575 7.69901e-006 7.99628e-007 3 -8.02886 -4.95144 -0.697669 -179.655 10.4477 1.89949 180 7.01509e-015 178.77 176.268 35.4377 179.755 -5.35018e-007 -4.00493e-006 0.446724 -17.5778 67.3125 18.9656 8.44365 28.5912 -4.74765 -178.861 11.8654 0.824912 4.54188e-006 -4.6773e-006 -1.19491 -2.27576 -36.1076 0.428041 -1.6134e-006 -4.95197e-006 -0.476546 18.8726 68.6562 -20.0664 -8.31901 27.3581 4.45967 
43.9919 103.177 5.61943 -0.56923 -2.8191 7.31986 -0.201916 -1.8397 0.143849 -0.399828 0.322847 0.307341 -0.403687 1.96789 0.314137 6.74519 9.05757 -2.98367 -2.34318 6.89194 -1.72903 59.1119 -12.9945 -8.09032 74.7063 9.33518 32.5927 -3.59775e-006 1.24735e-007 2.91653e-007 6.13084 6.02201 -0.891877 -3.99779e-006 3.89604e-007 -3.00624 8.02927 -4.95139 0.697678 -59.4528 -4.41747 2.8356 -83.7266 10.0724 -17.1267 -5.77782e-006 6.14791e-007 -1.03527e-006 -10.3456 1.91 0.687967 7.69901e-006 7.99628e-007 3 -8.02886 -4.95144 -0.697669 -179.643 10.4944 1.87214 180 7.01511e-015 178.775 176.291 35.4386 179.741 -5.35017e-007 -4.00493e-006 0.439622 -17.462 67.2365 18.8971 8.55551 29.4878 -5.10843 -179.063 11.8964 0.90033 4.54188e-006 -4.6773e-006 -1.1939 -2.32925 -36.1995 0.413014 -1.6134e-006 -4.95197e-006 -0.470822 18.7569 68.5584 -19.9762 -8.38186 27.9228 4.7329 
43.9676 102.913 5.59666 -0.503417 -2.83611 7.31549 -0.19432 -1.83347 0.141905 -0.384738 0.335331 0.302733 -0.388537 1.98038 0.309276 6.21589 9.35414 -2.92144 -1.90637 6.54457 -1.74607 59.1603 -12.8134 -7.97417 75.3226 9.12957 32.4432 -3.59775e-006 1.24735e-007 2.91653e-007 6.14701 6.09695 -0.898254 -3.99779e-006 3.89604e-007 -3.00623 8.02927 -4.95139 0.697678 -60.1482 -4.28905 2.81023 -83.6996 9.98436 -16.9801 -5.77782e-006 6.14791e-007 -1.03527e-006 -10.4904 1.91689 0.681241 7.69901e-006 7.99628e-007 3 -8.02886 -4.95144 -0.697669 -179.638 10.5426 1.84801 180 7.01512e-015 178.78 176.316 35.4402 179.727 -5.35017e-007 -4.00492e-006 0.432825 -17.3529 67.1651 18.8329 8.68597 30.4228 -5.48869 -179.266 11.9268 0.976712 4.54188e-006 -4.6773e-006 -1.19296 -2.38269 -36.2866 0.397564 -1.6134e-006 -4.95196e-006 -0.465333 18.6467 68.4639 -19.8901 -8.45407 28.5141 5.01814 
43.9483 102.697 5.58667 -0.436085 -2.85134 7.31073 -0.186395 -1.82796 0.13963 -0.36901 0.34638 0.297429 -0.372739 1.99143 0.303708 5.66722 9.66375 -2.85568 -1.45468 6.18482 -1.76221 59.1948 -12.6263 -7.85527 75.9485 8.9203 32.2933 -3.59775e-006 1.24735e-007 2.91653e-007 6.16216 6.17268 -0.904596 -3.99779e-006 3.89604e-007 -3.00621 8.02927 -4.95139 0.697678 -60.8548 -4.15942 2.7852 -83.6628 9.89975 -16.8604 -5.77782e-006 6.14791e-007 -1.03527e-006 -10.6144 1.92939 0.675485 7.69901e-006 7.99628e-007 3 -8.02886 -4.95144 -0.697669 -179.64 10.5934 1.82706 180 7.01513e-015 178.785 176.342 35.4504 179.713 -5.35017e-007 -4.00492e-006 0.426923 -17.2593 67.1049 18.7785 8.83418 31.3807 -5.88051 -179.467 11.9582 1.05273 4.54188e-006 -4.6773e-006 -1.19228 -2.43521 -36.3755 0.381807 -1.6134e-006 -4.95195e-006 -0.460692 18.5506 68.3803 -19.8149 -8.53516 29.1234 5.30891 
43.9289 102.447 5.56585 -0.368787 -2.86515 7.30563 -0.178287 -1.82293 0.137163 -0.35293 0.356477 0.291721 -0.356584 2.00153 0.297729 5.11 9.98065 -2.78779 -0.997084 5.81742 -1.77721 59.2202 -12.4364 -7.73552 76.5812 8.71072 32.1437 -3.59775e-006 1.24735e-007 2.91653e-007 6.17614 6.24867 -0.910861 -3.99779e-006 3.89604e-007 -3.0062 8.02927 -4.95139 0.697678 -61.5614 -4.03037 2.76074 -83.6258 9.81954 -16.7664 -5.77782e-006 6.14791e-007 -1.03527e-006 -10.7157 1.94675 0.670788 7.69901e-006 7.99628e-007 3 -8.02886 -4.95144 -0.697669 -179.644 10.6478 1.80929 180 7.01514e-015 178.788 176.368 35.4769 179.701 -5.35017e-007 -4.00492e-006 0.422506 -17.1899 67.0622 18.7393 8.99823 32.3462 -6.27537 -179.666 11.992 1.12704 4.54188e-006 -4.6773e-006 -1.19204 -2.48593 -36.4728 0.365855 -1.6134e-006 -4.95195e-006 -0.457513 18.4768 68.3148 -19.7568 -8.6241 29.7424 5.59852 
43.9254 102.221 5.5373 -0.303078 -2.87793 7.3003 -0.170143 -1.81813 0.134644 -0.336786 0.366105 0.285903 -0.340364 2.01116 0.29164 4.55513 10.2991 -2.71916 -0.542563 5.44709 -1.79085 59.2414 -12.2471 -7.6168 77.2181 8.50426 31.995 -3.59775e-006 1.24735e-007 2.91653e-007 6.18879 6.3244 -0.917006 -3.99779e-006 3.89604e-007 -3.00619 8.02927 -4.95139 0.697678 -62.2568 -3.90369 2.73709 -83.5983 9.74467 -16.6968 -5.77782e-006 6.14791e-007 -1.03527e-006 -10.7923 1.96824 0.667239 7.69901e-006 7.99628e-007 3 -8.02886 -4.95144 -0.697669 -179.648 10.7068 1.79467 180 7.01515e-015 178.791 176.393 35.5276 179.69 -5.35017e-007 -4.00491e-006 0.420166 -17.1535 67.0437 18.7207 9.17503 33.3043 -6.66406 -179.858 12.0296 1.19833 4.54188e-006 -4.6773e-006 -1.19243 -2.53401 -36.5849 0.349818 -1.6134e-006 -4.95195e-006 -0.456409 18.4336 68.275 -19.7222 -8.71938 30.3628 5.87996 
43.9049 101.977 5.52068 -0.240512 -2.89004 7.2948 -0.162112 -1.81333 0.132211 -0.320865 0.375745 0.280267 -0.32437 2.0208 0.285737 4.01353 10.6133 -2.65119 -0.100072 5.07853 -1.80288 59.2634 -12.0616 -7.50098 77.8565 8.30432 31.8477 -3.59775e-006 1.24735e-007 2.91653e-007 6.19992 6.39935 -0.92299 -3.99779e-006 3.89604e-007 -3.00617 8.02927 -4.95139 0.697678 -62.9296 -3.7812 2.71446 -83.59 9.67606 -16.6505 -5.77782e-006 6.14791e-007 -1.03527e-006 -10.8425 1.99312 0.664925 7.69901e-006 7.99628e-007 3 -8.02886 -4.95144 -0.697669 -179.65 10.7715 1.78318 180 7.01515e-015 178.792 176.417 35.6103 179.681 -5.35017e-007 -4.00491e-006 0.420491 -17.1588 67.0559 18.7281 9.36019 34.2399 -7.03655 179.956 12.0725 1.26526 4.54188e-006 -4.6773e-006 -1.19362 -2.57859 -36.7185 0.333798 -1.6134e-006 -4.95195e-006 -0.457995 18.4293 68.2684 -19.7175 -8.8189 30.9765 6.14594 
